<svg height="42" viewBox="0 0 100 42" width="100" xmlns="http://www.w3.org/2000/svg"><g fill="#fff" transform="translate(-910.5 -523.5)"><path d="m926.08 523.5c.37 0 .57.18.57.51v19.2c0 .33-.2.5-.57.5h-2.63c-.37 0-.57-.17-.57-.5v-11.37h-.2l-2.8 11.42a.58.58 0 0 1 -.62.46h-1.39a.57.57 0 0 1 -.62-.46l-2.8-11.42h-.2v11.37c0 .33-.2.5-.57.5h-2.6c-.37 0-.57-.17-.57-.5v-19.21c0-.33.2-.51.57-.51h3.73a.58.58 0 0 1 .63.46l3.14 12.58 3.15-12.53a.57.57 0 0 1 .62-.46z"/><path d="m939.28 543.72a.43.43 0 0 1 -.45-.36l-.79-3.69h-5l-.76 3.69a.43.43 0 0 1 -.45.36h-3c-.31 0-.45-.15-.36-.43l4.7-19.44a.43.43 0 0 1 .48-.35h3.94a.43.43 0 0 1 .48.35l4.7 19.44c.06.28-.06.43-.4.43zm-3.76-15.8-1.82 8.82h3.63z"/><path d="m955.15 523.5a.54.54 0 0 1 .56.51v16.07c0 2.37-1.41 3.64-4.08 3.64h-3.17c-2.66 0-4.08-1.27-4.08-3.64v-16.08a.54.54 0 0 1 .57-.51h2.71a.54.54 0 0 1 .57.51v15.36c0 .68.4 1 1.13 1h1.48c.73 0 1.13-.33 1.13-1v-15.36a.54.54 0 0 1 .57-.51z"/><path d="m969.91 533.31a3.22 3.22 0 0 1 -2.07 3.33l1.95 6.62c.09.3-.08.46-.39.46h-2.95a.43.43 0 0 1 -.48-.36l-1.9-6.42h-2v6.37c0 .26-.17.41-.46.41h-2.94c-.29 0-.46-.15-.46-.41v-19.4c0-.26.17-.41.46-.41h7.11c2.66 0 4.08 1.27 4.08 3.64zm-5 .3c.74 0 1.13-.35 1.13-1v-4.75c0-.66-.39-1-1.13-1h-2.8v6.77z"/><path d="m975.86 523.5c.28 0 .45.15.45.4v19.41c0 .25-.17.4-.45.4h-3c-.31 0-.45-.15-.45-.4v-19.4c0-.26.14-.41.45-.41z"/><path d="m990.21 529.87c0 .25-.16.4-.45.4h-2.83c-.31 0-.45-.15-.45-.4v-2c0-.66-.4-1-1.14-1h-1.47c-.76 0-1.13.35-1.13 1v11.52c0 .68.4 1 1.13 1h1.47c.74 0 1.14-.33 1.14-1v-2c0-.25.14-.41.45-.41h2.83a.4.4 0 0 1 .45.41v2.73c0 2.37-1.44 3.64-4.08 3.64h-3.13c-2.66 0-4.11-1.27-4.11-3.64v-12.98c0-2.38 1.45-3.64 4.11-3.64h3.17c2.64 0 4.08 1.26 4.08 3.64z"/><path d="m996.16 523.5c.29 0 .46.15.46.4v19.41c0 .25-.17.4-.46.4h-2.94c-.32 0-.46-.15-.46-.4v-19.4c0-.26.14-.41.46-.41z"/><path d="m999.17 527.14c0-2.38 1.41-3.64 4.08-3.64h3.17c2.66 0 4.08 1.26 4.08 3.64v12.94c0 2.37-1.42 3.64-4.08 3.64h-3.17c-2.67 0-4.08-1.27-4.08-3.64zm6.54 13.32c.74 0 1.13-.33 1.13-1v-11.69c0-.65-.39-1-1.13-1h-1.64c-.74 0-1.14.36-1.14 1v11.68c0 .68.4 1 1.14 1z"/><path d="m921.86 553.57a1.91 1.91 0 0 1 -1.78 1.8 1.9 1.9 0 0 1 1.78 1.79v4.65c0 2.38-1.45 3.64-4.11 3.64h-6.75c-.28 0-.45-.15-.45-.4v-19.36c0-.28.17-.4.45-.4h6.8c2.66 0 4.11 1.26 4.11 3.63zm-3.77-3.94c0-.66-.36-1-1.13-1h-2.58v5.11h2.62c.74 0 1.13-.36 1.13-1zm0 8.44c0-.66-.36-1-1.13-1h-2.58v5.11h2.62c.74 0 1.13-.33 1.13-1z"/><path d="m934.5 565.5a.42.42 0 0 1 -.46-.35l-.79-3.69h-5l-.77 3.69a.42.42 0 0 1 -.45.35h-3c-.32 0-.46-.15-.37-.43l4.7-19.43a.43.43 0 0 1 .48-.36h3.94a.43.43 0 0 1 .48.36l4.7 19.43c.06.28 0 .43-.39.43zm-3.77-15.79-1.82 8.81h3.63z"/><path d="m949.74 545.28c.42 0 .62.23.45.58l-5.19 11.25v7.89c0 .33-.19.51-.56.51h-2.72c-.37 0-.57-.18-.57-.51v-7.88l-5.15-11.26c-.17-.35 0-.58.45-.58h2.83a.63.63 0 0 1 .66.41l3.17 7.25 3.17-7.25a.62.62 0 0 1 .65-.41z"/><path d="m962.71 545.28a.55.55 0 0 1 .57.51v16.07c0 2.38-1.42 3.64-4.08 3.64h-3.2c-2.66 0-4.08-1.26-4.08-3.64v-16.07a.55.55 0 0 1 .57-.51h2.72a.55.55 0 0 1 .57.51v15.36c0 .68.39 1 1.13 1h1.47c.74 0 1.13-.33 1.13-1v-15.36a.55.55 0 0 1 .57-.51z"/><path d="m977.13 548.22c0 .25-.11.43-.45.43h-7.09v5.05h5.41a.4.4 0 0 1 .45.43v2.5a.4.4 0 0 1 -.45.43h-5.42v5.11h7.09c.34 0 .45.12.45.4v2.53c0 .25-.11.4-.45.4h-10.42a.38.38 0 0 1 -.42-.4v-19.41a.38.38 0 0 1 .42-.4h10.43c.34 0 .45.15.45.4z"/><path d="m983.53 562.16h6.74c.32 0 .46.15.46.41v2.52c0 .28-.14.41-.46.41h-10.14c-.28 0-.45-.13-.45-.41v-19.4c0-.25.17-.4.45-.4h3c.31 0 .45.15.45.4z"/><path d="m992.43 548.92c0-2.37 1.41-3.64 4.08-3.64h3.17c2.66 0 4.08 1.27 4.08 3.64v12.94c0 2.38-1.42 3.64-4.08 3.64h-3.17c-2.67 0-4.08-1.26-4.08-3.64zm6.57 13.32c.74 0 1.13-.33 1.13-1v-11.68c0-.66-.39-1-1.13-1h-1.64c-.74 0-1.14.36-1.14 1v11.67c0 .68.4 1 1.14 1z"/></g></svg>